{
  "asset": {
    "version": "2.0",
    "generator": "KOS authored scene integration fixture"
  },
  "buffers": [
    {
      "byteLength": 388,
      "uri": "data:application/octet-stream;base64,"
    }
  ],
  "bufferViews": [
    {
      "buffer": 0,
      "byteOffset": 0,
      "byteLength": 36
    },
    {
      "buffer": 0,
      "byteOffset": 36,
      "byteLength": 36
    },
    {
      "buffer": 0,
      "byteOffset": 72,
      "byteLength": 24
    },
    {
      "buffer": 0,
      "byteOffset": 96,
      "byteLength": 48
    },
    {
      "buffer": 0,
      "byteOffset": 144,
      "byteLength": 6
    },
    {
      "buffer": 0,
      "byteOffset": 152,
      "byteLength": 36
    },
    {
      "buffer": 0,
      "byteOffset": 188,
      "byteLength": 128
    },
    {
      "buffer": 0,
      "byteOffset": 316,
      "byteLength": 12
    },
    {
      "buffer": 0,
      "byteOffset": 328,
      "byteLength": 36
    },
    {
      "buffer": 0,
      "byteOffset": 364,
      "byteLength": 12
    },
    {
      "buffer": 0,
      "byteOffset": 376,
      "byteLength": 12
    }
  ],
  "accessors": [
    {
      "bufferView": 0,
      "componentType": 5126,
      "count": 3,
      "type": "VEC3"
    },
    {
      "bufferView": 1,
      "componentType": 5126,
      "count": 3,
      "type": "VEC3"
    },
    {
      "bufferView": 2,
      "componentType": 5123,
      "count": 3,
      "type": "VEC4"
    },
    {
      "bufferView": 3,
      "componentType": 5126,
      "count": 3,
      "type": "VEC4"
    },
    {
      "bufferView": 4,
      "componentType": 5123,
      "count": 3,
      "type": "SCALAR"
    },
    {
      "bufferView": 5,
      "componentType": 5126,
      "count": 3,
      "type": "VEC3"
    },
    {
      "bufferView": 6,
      "componentType": 5126,
      "count": 2,
      "type": "MAT4"
    },
    {
      "bufferView": 7,
      "componentType": 5126,
      "count": 3,
      "type": "SCALAR",
      "min": [
        0
      ],
      "max": [
        2
      ]
    },
    {
      "bufferView": 8,
      "componentType": 5126,
      "count": 3,
      "type": "VEC3"
    },
    {
      "bufferView": 9,
      "componentType": 5126,
      "count": 3,
      "type": "SCALAR"
    },
    {
      "bufferView": 10,
      "componentType": 5126,
      "count": 3,
      "type": "SCALAR"
    }
  ],
  "materials": [
    {
      "name": "warm",
      "pbrMetallicRoughness": {
        "baseColorFactor": [
          1,
          0.25,
          0.1,
          1
        ]
      },
      "doubleSided": true
    },
    {
      "name": "cool",
      "pbrMetallicRoughness": {
        "baseColorFactor": [
          0.1,
          0.7,
          1,
          1
        ]
      },
      "doubleSided": true
    }
  ],
  "meshes": [
    {
      "name": "left",
      "weights": [
        0
      ],
      "primitives": [
        {
          "attributes": {
            "POSITION": 0,
            "NORMAL": 1,
            "JOINTS_0": 2,
            "WEIGHTS_0": 3
          },
          "indices": 4,
          "targets": [
            {
              "POSITION": 5
            }
          ],
          "material": 0
        }
      ]
    },
    {
      "name": "right",
      "weights": [
        1
      ],
      "primitives": [
        {
          "attributes": {
            "POSITION": 0,
            "NORMAL": 1,
            "JOINTS_0": 2,
            "WEIGHTS_0": 3
          },
          "indices": 4,
          "targets": [
            {
              "POSITION": 5
            }
          ],
          "material": 1
        }
      ]
    }
  ],
  "skins": [
    {
      "joints": [
        1,
        2
      ],
      "inverseBindMatrices": 6
    }
  ],
  "nodes": [
    {
      "name": "root",
      "translation": [
        0.25,
        0,
        0
      ],
      "children": [
        1,
        3,
        4
      ]
    },
    {
      "name": "base",
      "children": [
        2
      ]
    },
    {
      "name": "tip",
      "translation": [
        0,
        1,
        0
      ]
    },
    {
      "name": "left",
      "mesh": 0,
      "skin": 0
    },
    {
      "name": "right",
      "mesh": 1,
      "skin": 0
    }
  ],
  "scenes": [
    {
      "nodes": [
        0
      ]
    }
  ],
  "scene": 0,
  "animations": [
    {
      "name": "bend",
      "samplers": [
        {
          "input": 7,
          "output": 8,
          "interpolation": "LINEAR"
        },
        {
          "input": 7,
          "output": 9,
          "interpolation": "LINEAR"
        },
        {
          "input": 7,
          "output": 10,
          "interpolation": "LINEAR"
        }
      ],
      "channels": [
        {
          "sampler": 0,
          "target": {
            "node": 2,
            "path": "translation"
          }
        },
        {
          "sampler": 1,
          "target": {
            "node": 3,
            "path": "weights"
          }
        },
        {
          "sampler": 2,
          "target": {
            "node": 4,
            "path": "weights"
          }
        }
      ]
    }
  ]
}
